<svg xmlns="http://www.w3.org/2000/svg" width="389" height="304" viewBox="0 0 389 304" version="1.1"><path d="M 138.500 18.667 C 133.550 21.178, 129.314 23.403, 129.088 23.612 C 128.861 23.821, 129.211 25.168, 129.866 26.605 C 131.082 29.274, 131.071 29.273, 137.189 27.334 C 138.508 26.916, 139.906 28.852, 143.553 36.149 C 149.704 48.452, 149.549 48.285, 153.101 46.448 C 154.695 45.623, 156 44.719, 156 44.439 C 156 44.159, 155.130 44.395, 154.066 44.965 C 153.002 45.534, 151.521 46, 150.776 46 C 150.030 46, 147.191 41.469, 144.466 35.930 C 139.294 25.419, 139.066 25.238, 133.827 27.449 C 132.686 27.930, 131.803 27.500, 131.053 26.099 C 130.038 24.203, 130.656 23.690, 139.020 19.490 C 144.007 16.985, 148.587 15.245, 149.198 15.623 C 149.871 16.038, 150.028 15.854, 149.595 15.155 C 148.603 13.549, 148.565 13.561, 138.500 18.667 M 147.500 20.205 L 144.500 23.194 147.750 21.571 C 149.537 20.679, 151 19.285, 151 18.474 C 151 16.653, 151.128 16.590, 147.500 20.205 M 312.068 22.736 C 312.106 23.156, 315.752 25.273, 320.171 27.441 C 330.028 32.275, 338.433 38.582, 347.069 47.623 C 363.771 65.109, 372.847 85.492, 375.980 112.552 L 376.900 120.500 376.456 111.901 C 375.587 95.090, 368.344 74.323, 357.960 58.877 C 352.286 50.436, 339.710 38.062, 331.284 32.629 C 323.283 27.471, 311.971 21.646, 312.068 22.736 M 122.999 26.800 L 120.777 28.599 125.338 37.550 C 127.846 42.472, 129.922 45.880, 129.949 45.123 C 129.977 44.366, 128.141 40.379, 125.869 36.263 C 122.555 30.259, 122.011 28.607, 123.119 27.905 C 126.021 26.067, 127.209 27.301, 132.031 37.161 C 134.764 42.750, 137 46.792, 137 46.143 C 137 44.259, 127.073 25, 126.102 25 C 125.618 25, 124.222 25.810, 122.999 26.800 M 318.932 32.618 C 337.169 49.774, 350.184 77.215, 356.395 111.607 C 357.179 115.948, 357.861 118.204, 357.910 116.620 C 358.051 112.118, 353.200 91.769, 349.350 80.708 C 345.305 69.086, 338.475 55.078, 332.673 46.500 C 328.410 40.199, 313.725 25, 311.899 25 C 311.313 25, 314.478 28.428, 318.932 32.618 M 214.241 30.775 C 211.339 33.485, 206.452 41.785, 207.274 42.607 C 207.501 42.834, 208.518 41.178, 209.534 38.925 C 210.549 36.673, 213.176 33.294, 215.370 31.415 C 217.565 29.537, 218.877 28, 218.286 28 C 217.695 28, 215.875 29.249, 214.241 30.775 M 233 29.727 C 243.146 36.921, 251 48.215, 258.494 66.385 C 261.015 72.498, 263.513 78.400, 264.044 79.500 C 266.553 84.692, 263.468 75.719, 259.378 65.928 C 251.744 47.650, 241.638 33.268, 233.802 29.530 C 230.548 27.978, 230.536 27.981, 233 29.727 M 108.250 34.220 C 107.013 34.817, 106.019 35.799, 106.042 36.403 C 106.096 37.831, 109.914 44.813, 109.923 43.500 C 109.926 42.950, 109.286 41.375, 108.500 40 C 106.543 36.577, 106.613 36.274, 109.750 34.572 C 112.892 32.868, 111.656 32.578, 108.250 34.220 M 91.030 42.583 C 86.964 44.347, 84.198 46.681, 82.847 49.489 C 82.081 51.080, 82.368 50.978, 84.222 49 C 88.135 44.825, 89.912 43.716, 94.806 42.399 C 97.751 41.606, 98.569 41.124, 97 41.107 C 95.625 41.091, 92.938 41.756, 91.030 42.583 M 205.500 47 C 205.120 48.729, 205.018 50.351, 205.273 50.606 C 205.528 50.861, 206.024 49.632, 206.375 47.875 C 207.209 43.707, 206.401 42.899, 205.500 47 M 92.629 48.791 C 92.360 49.226, 93.711 49.399, 95.632 49.174 C 98.262 48.867, 99.786 49.350, 101.811 51.133 L 104.500 53.500 102.076 50.750 C 100.362 48.806, 98.694 48, 96.385 48 C 94.588 48, 92.898 48.356, 92.629 48.791 M 136.158 51 C 136.158 52.375, 136.385 52.938, 136.662 52.250 C 136.940 51.563, 136.940 50.438, 136.662 49.750 C 136.385 49.063, 136.158 49.625, 136.158 51 M 121.405 51.750 C 122.453 52.987, 124.028 53.964, 124.905 53.921 C 126.259 53.854, 126.273 53.759, 125 53.291 C 124.175 52.987, 122.600 52.010, 121.500 51.120 C 119.517 49.514, 119.516 49.519, 121.405 51.750 M 295.225 51.209 C 296.173 51.919, 299.759 54.075, 303.193 56 C 315.215 62.740, 329.240 78.385, 335.138 91.635 C 336.329 94.311, 338.336 99.875, 339.598 104 C 340.860 108.125, 341.911 110.600, 341.933 109.500 C 342.005 105.917, 336.328 91.169, 332.216 84.254 C 323.943 70.344, 312.184 59.044, 299.576 52.886 C 296.234 51.253, 294.276 50.499, 295.225 51.209 M 71.250 53.220 C 70.013 53.817, 69 54.912, 69 55.653 C 69 56.565, 69.646 56.354, 71 55 C 72.100 53.900, 73.367 53, 73.816 53 C 74.265 53, 75.920 55.695, 77.494 58.988 C 79.069 62.282, 80.531 64.802, 80.744 64.590 C 81.328 64.005, 75.083 51.990, 74.236 52.068 C 73.831 52.105, 72.487 52.624, 71.250 53.220 M 200.992 56.010 C 194.265 64.503, 168.029 85.550, 148 98.520 C 137.155 105.544, 132.470 109.099, 139.500 104.972 C 152.019 97.621, 173.129 82.394, 186 71.429 C 196.194 62.744, 205.601 53.268, 204.812 52.479 C 204.498 52.165, 202.779 53.754, 200.992 56.010 M 293.030 52.500 C 293.014 53.050, 294.584 54.764, 296.521 56.309 C 298.457 57.854, 302.459 62.354, 305.413 66.309 C 313.788 77.521, 319.276 89.345, 324.066 106.500 C 325.602 112, 326.891 115.567, 326.929 114.426 C 327.129 108.563, 318.184 84.542, 311.755 73.676 C 307.755 66.915, 293.096 50.337, 293.030 52.500 M 81.252 56.500 C 81.263 58.700, 81.468 59.482, 81.707 58.238 C 81.946 56.994, 81.937 55.194, 81.687 54.238 C 81.437 53.282, 81.241 54.300, 81.252 56.500 M 117.689 56.750 C 119.494 58.538, 121.765 59.971, 122.735 59.937 C 123.985 59.892, 123.771 59.583, 122 58.879 C 120.625 58.333, 118.354 56.899, 116.954 55.693 C 115.553 54.487, 115.884 54.962, 117.689 56.750 M 88.115 56.639 C 88.051 58.377, 88.781 60.630, 89.750 61.686 C 90.713 62.736, 91.088 62.987, 90.584 62.245 C 90.080 61.502, 89.345 59.231, 88.949 57.198 C 88.239 53.547, 88.229 53.540, 88.115 56.639 M 112.158 59 C 112.158 60.375, 112.385 60.938, 112.662 60.250 C 112.940 59.563, 112.940 58.438, 112.662 57.750 C 112.385 57.063, 112.158 57.625, 112.158 59 M 125.750 59.662 C 126.438 59.940, 127.563 59.940, 128.250 59.662 C 128.938 59.385, 128.375 59.158, 127 59.158 C 125.625 59.158, 125.063 59.385, 125.750 59.662 M 55.757 61.568 L 53.014 63.057 59.475 75.949 C 63.028 83.040, 66.366 89.108, 66.893 89.434 C 68.069 90.161, 73 88.020, 73 86.783 C 73 86.290, 72 86.587, 70.777 87.443 C 69.555 88.299, 68.281 89, 67.945 89 C 67.610 89, 64.327 83.183, 60.651 76.073 C 54.083 63.368, 54.006 63.132, 56.234 62.374 C 57.480 61.951, 58.871 61.704, 59.324 61.827 C 59.778 61.949, 59.864 61.588, 59.515 61.025 C 58.758 59.799, 59.112 59.748, 55.757 61.568 M 73 64.848 C 73 65.315, 71.144 66.533, 68.875 67.556 C 66.606 68.580, 65.199 69.566, 65.748 69.749 C 67.035 70.178, 74 66.086, 74 64.901 C 74 64.406, 73.775 64, 73.500 64 C 73.225 64, 73 64.382, 73 64.848 M 42.209 67.668 C 37.488 69.994, 34.979 73.608, 35.115 77.885 L 35.230 81.500 35.972 77.662 C 36.410 75.398, 38.007 72.531, 39.869 70.670 C 42.562 67.976, 43.754 67.513, 48.009 67.507 C 50.751 67.503, 52.995 67.162, 52.997 66.750 C 53.003 65.384, 45.556 66.018, 42.209 67.668 M 84 66.313 C 84 66.485, 85.463 67.948, 87.250 69.563 L 90.500 72.500 87.563 69.250 C 84.825 66.221, 84 65.540, 84 66.313 M 108.872 67.662 C 108.118 68.576, 106.150 70.150, 104.500 71.158 C 102.850 72.167, 102.069 72.994, 102.765 72.996 C 104.021 73, 112.073 66.079, 110.872 66.027 C 110.527 66.012, 109.627 66.748, 108.872 67.662 M 82.048 67.228 C 82.022 67.628, 83.217 70.436, 84.704 73.469 C 87.371 78.907, 87.381 79.003, 85.454 80.600 C 83.589 82.145, 83.606 82.157, 85.816 80.859 C 87.090 80.112, 88.167 79.275, 88.209 79 C 88.251 78.725, 86.892 75.800, 85.191 72.500 C 83.489 69.200, 82.075 66.828, 82.048 67.228 M 198.924 69.750 L 196.500 72.500 199.142 70.177 C 201.110 68.447, 201.920 68.191, 202.313 69.177 C 202.664 70.055, 202.869 69.911, 202.921 68.750 C 203.034 66.253, 201.717 66.582, 198.924 69.750 M 51 70.833 C 51 71.475, 49.677 72, 48.059 72 C 46.441 72, 44.898 72.356, 44.629 72.791 C 44.360 73.226, 45.688 73.401, 47.579 73.181 C 50.952 72.787, 52.789 71.456, 51.600 70.267 C 51.270 69.937, 51 70.192, 51 70.833 M 70.750 73.068 C 68.688 74.157, 67 75.518, 67 76.092 C 67 76.666, 68.237 76.274, 69.750 75.221 C 71.263 74.167, 73.400 72.800, 74.500 72.183 C 78.006 70.216, 74.654 71.007, 70.750 73.068 M 274 72.449 C 274 72.724, 275.350 73.647, 277 74.500 C 278.650 75.353, 280 75.826, 280 75.551 C 280 75.276, 278.650 74.353, 277 73.500 C 275.350 72.647, 274 72.174, 274 72.449 M 95.762 73.707 C 97.006 73.946, 98.806 73.937, 99.762 73.687 C 100.718 73.437, 99.700 73.241, 97.500 73.252 C 95.300 73.263, 94.518 73.468, 95.762 73.707 M 201.252 76.500 C 201.263 78.700, 201.468 79.482, 201.707 78.238 C 201.946 76.994, 201.937 75.194, 201.687 74.238 C 201.437 73.282, 201.241 74.300, 201.252 76.500 M 278.549 79.918 C 288.303 90.700, 295.174 104.892, 299.595 123.390 C 300.924 128.950, 301.743 131.270, 301.414 128.544 C 300.401 120.153, 296.148 106.956, 291.258 97.030 C 287.763 89.936, 284.951 85.902, 280.047 80.949 C 274.816 75.666, 274.515 75.459, 278.549 79.918 M 281 76.219 C 281 76.402, 283.968 78.790, 287.597 81.526 C 298.318 89.610, 306.673 102.332, 311.216 117.492 C 312.566 121.998, 312.870 122.500, 312.430 119.500 C 310.923 109.204, 303.285 95.370, 293.957 86.043 C 288.544 80.630, 281 74.910, 281 76.219 M 42.879 79.279 C 43.362 79.762, 45.049 79.995, 46.628 79.798 C 49.272 79.468, 49.202 79.399, 45.751 78.921 C 43.601 78.623, 42.376 78.776, 42.879 79.279 M 59.086 81.618 C 60.414 83.333, 61.701 84.557, 61.947 84.338 C 62.193 84.119, 61.106 82.716, 59.533 81.220 L 56.672 78.500 59.086 81.618 M 185.924 82.750 L 183.500 85.500 186.250 83.076 C 188.820 80.810, 189.459 80, 188.674 80 C 188.495 80, 187.258 81.237, 185.924 82.750 M 37.500 84 C 38.495 85.100, 39.535 86, 39.810 86 C 40.085 86, 39.495 85.100, 38.500 84 C 37.505 82.900, 36.465 82, 36.190 82 C 35.915 82, 36.505 82.900, 37.500 84 M 116.500 85 C 116.160 85.550, 116.332 86, 116.882 86 C 117.432 86, 118.160 85.550, 118.500 85 C 118.840 84.450, 118.668 84, 118.118 84 C 117.568 84, 116.840 84.450, 116.500 85 M 47 85.395 C 47 85.612, 48.762 85.958, 50.916 86.163 C 53.070 86.369, 54.618 86.191, 54.357 85.768 C 53.882 84.999, 47 84.650, 47 85.395 M 180.405 87.250 L 178.500 89.500 180.750 87.595 C 181.988 86.547, 183 85.535, 183 85.345 C 183 84.545, 182.195 85.136, 180.405 87.250 M 92.345 88.543 C 92.019 89.392, 91.976 90.310, 92.249 90.583 C 92.523 90.856, 92.986 90.161, 93.279 89.040 C 93.903 86.657, 93.210 86.289, 92.345 88.543 M 52 91.583 C 50.319 92.516, 50.033 92.975, 51.128 92.985 C 52.023 92.993, 53.315 92.325, 54 91.500 C 55.460 89.740, 55.310 89.747, 52 91.583 M 58.839 93.616 C 57.400 95.055, 53.810 97.065, 50.861 98.083 C 47.913 99.102, 46.400 99.915, 47.500 99.891 C 51.765 99.799, 57.924 96.510, 60.872 92.750 C 62.896 90.169, 61.832 90.623, 58.839 93.616 M 44.459 93.067 C 43.433 94.727, 44.354 94.957, 45.789 93.399 C 46.499 92.630, 46.638 92, 46.098 92 C 45.559 92, 44.821 92.480, 44.459 93.067 M 208.168 103.250 L 208.336 107.500 208.730 103.729 C 208.980 101.327, 209.520 100.203, 210.216 100.634 C 210.871 101.038, 211.023 100.847, 210.595 100.155 C 209.109 97.749, 208.006 99.156, 208.168 103.250 M 201.195 108.500 C 201.215 110.150, 201.439 110.704, 201.693 109.731 C 201.947 108.758, 201.930 107.408, 201.656 106.731 C 201.382 106.054, 201.175 106.850, 201.195 108.500 M 122.500 113.563 C 115.900 117.082, 110.876 119.970, 111.335 119.981 C 112.452 120.007, 131.041 110.435, 133.534 108.550 C 136.805 106.077, 135.025 106.886, 122.500 113.563 M 209.158 112 C 209.158 113.375, 209.385 113.938, 209.662 113.250 C 209.940 112.563, 209.940 111.438, 209.662 110.750 C 209.385 110.063, 209.158 110.625, 209.158 112 M 342.195 114.500 C 342.215 116.150, 342.439 116.704, 342.693 115.731 C 342.947 114.758, 342.930 113.408, 342.656 112.731 C 342.382 112.054, 342.175 112.850, 342.195 114.500 M 202.158 118 C 202.158 119.375, 202.385 119.938, 202.662 119.250 C 202.940 118.563, 202.940 117.438, 202.662 116.750 C 202.385 116.063, 202.158 116.625, 202.158 118 M 210.195 119.500 C 210.215 121.150, 210.439 121.704, 210.693 120.731 C 210.947 119.758, 210.930 118.408, 210.656 117.731 C 210.382 117.054, 210.175 117.850, 210.195 119.500 M 327.158 119 C 327.158 120.375, 327.385 120.938, 327.662 120.250 C 327.940 119.563, 327.940 118.438, 327.662 117.750 C 327.385 117.063, 327.158 117.625, 327.158 119 M 343.286 122.500 C 343.294 125.250, 343.488 126.256, 343.718 124.736 C 343.947 123.216, 343.941 120.966, 343.704 119.736 C 343.467 118.506, 343.279 119.750, 343.286 122.500 M 107 121 C 106.175 121.533, 105.950 121.969, 106.500 121.969 C 107.050 121.969, 108.175 121.533, 109 121 C 109.825 120.467, 110.050 120.031, 109.500 120.031 C 108.950 120.031, 107.825 120.467, 107 121 M 358.252 123.500 C 358.263 125.700, 358.468 126.482, 358.707 125.238 C 358.946 123.994, 358.937 122.194, 358.687 121.238 C 358.437 120.282, 358.241 121.300, 358.252 123.500 M 102 123 C 101.175 123.533, 100.950 123.969, 101.500 123.969 C 102.050 123.969, 103.175 123.533, 104 123 C 104.825 122.467, 105.050 122.031, 104.500 122.031 C 103.950 122.031, 102.825 122.467, 102 123 M 276.158 124 C 276.158 125.375, 276.385 125.938, 276.662 125.250 C 276.940 124.563, 276.940 123.438, 276.662 122.750 C 276.385 122.063, 276.158 122.625, 276.158 124 M 328.718 129.500 C 329.021 133.900, 329.434 137.688, 329.635 137.917 C 330.333 138.713, 329.880 129.476, 329.025 125.500 C 328.408 122.627, 328.322 123.755, 328.718 129.500 M 119 127.500 C 116.571 129.975, 114.809 132, 115.084 132 C 115.359 132, 117.571 129.975, 120 127.500 C 122.429 125.025, 124.191 123, 123.916 123 C 123.641 123, 121.429 125.025, 119 127.500 M 203.158 125 C 203.158 126.375, 203.385 126.938, 203.662 126.250 C 203.940 125.563, 203.940 124.438, 203.662 123.750 C 203.385 123.063, 203.158 123.625, 203.158 125 M 377.286 127.500 C 377.294 130.250, 377.488 131.256, 377.718 129.736 C 377.947 128.216, 377.941 125.966, 377.704 124.736 C 377.467 123.506, 377.279 124.750, 377.286 127.500 M 97 125 C 96.175 125.533, 95.950 125.969, 96.500 125.969 C 97.050 125.969, 98.175 125.533, 99 125 C 99.825 124.467, 100.050 124.031, 99.500 124.031 C 98.950 124.031, 97.825 124.467, 97 125 M 313.232 127 C 313.232 128.925, 313.438 129.713, 313.689 128.750 C 313.941 127.787, 313.941 126.213, 313.689 125.250 C 313.438 124.287, 313.232 125.075, 313.232 127 M 92 127 C 91.175 127.533, 90.950 127.969, 91.500 127.969 C 92.050 127.969, 93.175 127.533, 94 127 C 94.825 126.467, 95.050 126.031, 94.500 126.031 C 93.950 126.031, 92.825 126.467, 92 127 M 87 129 C 86.175 129.533, 85.950 129.969, 86.500 129.969 C 87.050 129.969, 88.175 129.533, 89 129 C 89.825 128.467, 90.050 128.031, 89.500 128.031 C 88.950 128.031, 87.825 128.467, 87 129 M 359.297 146 C 359.272 156.175, 358.914 167.650, 358.502 171.500 C 358.091 175.350, 358.035 178.237, 358.378 177.915 C 359.615 176.758, 360.888 147.285, 360.124 137.500 C 359.409 128.339, 359.340 129.053, 359.297 146 M 80.500 131.535 C 77.999 132.740, 77.916 132.878, 80 132.369 C 82.834 131.677, 86.018 130.053, 84.500 130.076 C 83.950 130.084, 82.150 130.740, 80.500 131.535 M 314.343 139.500 C 314.346 143.900, 314.522 145.576, 314.733 143.224 C 314.945 140.872, 314.942 137.272, 314.727 135.224 C 314.512 133.176, 314.339 135.100, 314.343 139.500 M 74 134 C 73.175 134.533, 72.950 134.969, 73.500 134.969 C 74.050 134.969, 75.175 134.533, 76 134 C 76.825 133.467, 77.050 133.031, 76.500 133.031 C 75.950 133.031, 74.825 133.467, 74 134 M 302.759 147.500 C 303.043 155.200, 303.438 161.687, 303.638 161.917 C 304.300 162.678, 303.815 144.590, 303.023 139 C 302.548 135.647, 302.445 138.966, 302.759 147.500 M 64.482 138.640 C 59.292 142.079, 55.069 146, 53.861 148.500 C 53.330 149.600, 54.381 148.841, 56.197 146.813 C 58.014 144.785, 61.908 141.522, 64.850 139.563 C 67.793 137.603, 69.810 136, 69.333 136 C 68.855 136, 66.672 137.188, 64.482 138.640 M 213.158 139 C 213.158 140.375, 213.385 140.938, 213.662 140.250 C 213.940 139.563, 213.940 138.438, 213.662 137.750 C 213.385 137.063, 213.158 137.625, 213.158 139 M 376.272 142 C 376.272 144.475, 376.467 145.488, 376.706 144.250 C 376.944 143.012, 376.944 140.988, 376.706 139.750 C 376.467 138.512, 376.272 139.525, 376.272 142 M 343.286 144.500 C 343.294 147.250, 343.488 148.256, 343.718 146.736 C 343.947 145.216, 343.941 142.966, 343.704 141.736 C 343.467 140.506, 343.279 141.750, 343.286 144.500 M 330.158 143 C 330.158 144.375, 330.385 144.938, 330.662 144.250 C 330.940 143.563, 330.940 142.438, 330.662 141.750 C 330.385 141.063, 330.158 141.625, 330.158 143 M 39.970 151.124 C 33.662 154.434, 27.825 157.824, 27 158.658 C 26.175 159.492, 27.932 158.755, 30.905 157.021 C 37.787 153.008, 50 146.846, 50 147.388 C 50 147.615, 48.879 150.209, 47.510 153.151 C 46.140 156.093, 45.045 159.400, 45.077 160.500 C 45.108 161.600, 45.711 160.658, 46.415 158.406 C 47.120 156.154, 48.745 152.446, 50.026 150.167 C 51.308 147.887, 52.150 145.816, 51.898 145.565 C 51.646 145.313, 46.279 147.815, 39.970 151.124 M 330.336 154 C 330.336 158.125, 330.513 159.813, 330.728 157.750 C 330.944 155.688, 330.944 152.313, 330.728 150.250 C 330.513 148.188, 330.336 149.875, 330.336 154 M 108.252 151.500 C 108.263 153.700, 108.468 154.482, 108.707 153.238 C 108.946 151.994, 108.937 150.194, 108.687 149.238 C 108.437 148.282, 108.241 149.300, 108.252 151.500 M 375.195 150.500 C 375.215 152.150, 375.439 152.704, 375.693 151.731 C 375.947 150.758, 375.930 149.408, 375.656 148.731 C 375.382 148.054, 375.175 148.850, 375.195 150.500 M 234.385 162 C 234.385 168.875, 234.545 171.688, 234.740 168.250 C 234.936 164.813, 234.936 159.188, 234.740 155.750 C 234.545 152.313, 234.385 155.125, 234.385 162 M 313.232 153 C 313.232 154.925, 313.438 155.713, 313.689 154.750 C 313.941 153.787, 313.941 152.213, 313.689 151.250 C 313.438 150.287, 313.232 151.075, 313.232 153 M 50.500 154 C 49.647 155.650, 49.174 157, 49.449 157 C 49.724 157, 50.647 155.650, 51.500 154 C 52.353 152.350, 52.826 151, 52.551 151 C 52.276 151, 51.353 152.350, 50.500 154 M 342.195 153.500 C 342.215 155.150, 342.439 155.704, 342.693 154.731 C 342.947 153.758, 342.930 152.408, 342.656 151.731 C 342.382 151.054, 342.175 151.850, 342.195 153.500 M 374.158 157 C 374.158 158.375, 374.385 158.938, 374.662 158.250 C 374.940 157.563, 374.940 156.438, 374.662 155.750 C 374.385 155.063, 374.158 155.625, 374.158 157 M 312.158 159 C 312.158 160.375, 312.385 160.938, 312.662 160.250 C 312.940 159.563, 312.940 158.438, 312.662 157.750 C 312.385 157.063, 312.158 157.625, 312.158 159 M 341.158 159 C 341.158 160.375, 341.385 160.938, 341.662 160.250 C 341.940 159.563, 341.940 158.438, 341.662 157.750 C 341.385 157.063, 341.158 157.625, 341.158 159 M 48.374 160.467 C 48.065 161.274, 48.004 162.511, 48.240 163.217 C 48.476 163.923, 48.906 163.262, 49.196 161.750 C 49.762 158.797, 49.295 158.068, 48.374 160.467 M 109.158 162 C 109.158 163.375, 109.385 163.938, 109.662 163.250 C 109.940 162.563, 109.940 161.438, 109.662 160.750 C 109.385 160.063, 109.158 160.625, 109.158 162 M 371.286 168.236 C 370.073 172.781, 368.825 177.625, 368.512 179 L 367.944 181.500 369.038 179 C 370.708 175.184, 374.184 162.053, 373.816 160.949 C 373.637 160.411, 372.498 163.691, 371.286 168.236 M 21.084 165.365 C 19.940 167.215, 18.769 170.253, 18.481 172.115 C 17.990 175.288, 18.042 175.249, 19.306 171.479 C 20.047 169.268, 21.458 166.230, 22.442 164.729 C 23.425 163.228, 23.990 162, 23.697 162 C 23.403 162, 22.227 163.514, 21.084 165.365 M 310.625 165.125 C 309.791 169.293, 310.599 170.101, 311.500 166 C 311.880 164.271, 311.982 162.649, 311.727 162.394 C 311.472 162.139, 310.976 163.368, 310.625 165.125 M 28.305 165.750 C 27.941 170.904, 28.116 183.449, 28.558 183.892 C 28.801 184.135, 29 180.940, 29 176.792 C 29 172.644, 29.281 167.844, 29.625 166.125 C 29.969 164.406, 29.856 163, 29.375 163 C 28.894 163, 28.412 164.238, 28.305 165.750 M 339.571 165.571 C 339.204 167.037, 339.096 168.429, 339.331 168.665 C 339.567 168.900, 340.061 167.894, 340.429 166.429 C 340.796 164.963, 340.904 163.571, 340.669 163.335 C 340.433 163.100, 339.939 164.106, 339.571 165.571 M 281.272 168 C 281.272 170.475, 281.467 171.488, 281.706 170.250 C 281.944 169.012, 281.944 166.988, 281.706 165.750 C 281.467 164.512, 281.272 165.525, 281.272 168 M 302.272 168 C 302.272 170.475, 302.467 171.488, 302.706 170.250 C 302.944 169.012, 302.944 166.988, 302.706 165.750 C 302.467 164.512, 302.272 165.525, 302.272 168 M 328.646 170.896 C 328.268 174.964, 328.154 178.487, 328.391 178.725 C 329.014 179.348, 330.303 166.408, 329.775 164.826 C 329.532 164.097, 329.024 166.829, 328.646 170.896 M 44.370 175 C 44.370 180.775, 44.535 183.137, 44.737 180.250 C 44.939 177.363, 44.939 172.637, 44.737 169.750 C 44.535 166.863, 44.370 169.225, 44.370 175 M 33.343 175.500 C 33.346 179.900, 33.522 181.576, 33.733 179.224 C 33.945 176.872, 33.942 173.272, 33.727 171.224 C 33.512 169.176, 33.339 171.100, 33.343 175.500 M 336.714 175.214 C 335.804 178.062, 335.225 180.558, 335.427 180.761 C 335.630 180.964, 336.563 178.821, 337.500 176 C 338.437 173.179, 339.016 170.683, 338.787 170.454 C 338.558 170.224, 337.625 172.367, 336.714 175.214 M 23.336 178 C 23.336 182.125, 23.513 183.813, 23.728 181.750 C 23.944 179.688, 23.944 176.313, 23.728 174.250 C 23.513 172.188, 23.336 173.875, 23.336 178 M 301.195 175.500 C 301.215 177.150, 301.439 177.704, 301.693 176.731 C 301.947 175.758, 301.930 174.408, 301.656 173.731 C 301.382 173.054, 301.175 173.850, 301.195 175.500 M 307.111 176.111 C 306.495 177.878, 306.166 179.499, 306.380 179.713 C 306.594 179.927, 307.273 178.656, 307.889 176.889 C 308.505 175.122, 308.834 173.501, 308.620 173.287 C 308.406 173.073, 307.727 174.344, 307.111 176.111 M 47.232 177 C 47.232 178.925, 47.438 179.713, 47.689 178.750 C 47.941 177.787, 47.941 176.213, 47.689 175.250 C 47.438 174.287, 47.232 175.075, 47.232 177 M 17.195 178.500 C 17.215 180.150, 17.439 180.704, 17.693 179.731 C 17.947 178.758, 17.930 177.408, 17.656 176.731 C 17.382 176.054, 17.175 176.850, 17.195 178.500 M 281.195 179.500 C 281.215 181.150, 281.439 181.704, 281.693 180.731 C 281.947 179.758, 281.930 178.408, 281.656 177.731 C 281.382 177.054, 281.175 177.850, 281.195 179.500 M 38.158 180 C 38.158 181.375, 38.385 181.938, 38.662 181.250 C 38.940 180.563, 38.940 179.438, 38.662 178.750 C 38.385 178.063, 38.158 178.625, 38.158 180 M 299.625 182.125 C 298.791 186.293, 299.599 187.101, 300.500 183 C 300.880 181.271, 300.982 179.649, 300.727 179.394 C 300.472 179.139, 299.976 180.368, 299.625 182.125 M 357.195 181.500 C 357.215 183.150, 357.439 183.704, 357.693 182.731 C 357.947 181.758, 357.930 180.408, 357.656 179.731 C 357.382 179.054, 357.175 179.850, 357.195 181.500 M 327.158 182 C 327.158 183.375, 327.385 183.938, 327.662 183.250 C 327.940 182.563, 327.940 181.438, 327.662 180.750 C 327.385 180.063, 327.158 180.625, 327.158 182 M 302.705 186.528 C 301.229 189.538, 300.234 192, 300.494 192 C 301.167 192, 306.211 181.878, 305.762 181.429 C 305.557 181.224, 304.182 183.518, 302.705 186.528 M 332.679 185.546 C 330.330 190.473, 330.661 191.311, 333.116 186.656 C 334.232 184.541, 334.968 182.634, 334.752 182.418 C 334.535 182.202, 333.603 183.610, 332.679 185.546 M 48.195 185.500 C 48.215 187.150, 48.439 187.704, 48.693 186.731 C 48.947 185.758, 48.930 184.408, 48.656 183.731 C 48.382 183.054, 48.175 183.850, 48.195 185.500 M 118 185.313 C 118 185.485, 119.463 186.948, 121.250 188.563 L 124.500 191.500 121.563 188.250 C 118.825 185.221, 118 184.540, 118 185.313 M 324.232 193.196 C 322.985 197.652, 322.130 201.463, 322.332 201.665 C 322.879 202.212, 327.218 187.148, 326.832 186.043 C 326.649 185.521, 325.479 188.740, 324.232 193.196 M 45.577 189.363 C 46.698 197.151, 54.617 210.047, 56.454 207.075 C 57.127 205.986, 56.990 205.868, 54.750 205.601 C 54.063 205.519, 53.562 204.680, 53.637 203.737 C 53.712 202.793, 53.392 202.258, 52.925 202.546 C 51.879 203.193, 48.147 196.069, 46.352 190 C 45.052 185.604, 45.034 185.589, 45.577 189.363 M 356.158 188 C 356.158 189.375, 356.385 189.938, 356.662 189.250 C 356.940 188.563, 356.940 187.438, 356.662 186.750 C 356.385 186.063, 356.158 186.625, 356.158 188 M 297.571 189.571 C 297.204 191.037, 297.096 192.429, 297.331 192.665 C 297.567 192.900, 298.061 191.894, 298.429 190.429 C 298.796 188.963, 298.904 187.571, 298.669 187.335 C 298.433 187.100, 297.939 188.106, 297.571 189.571 M 362.722 193.222 C 361.233 196.591, 360.171 199.504, 360.361 199.695 C 360.552 199.886, 361.940 197.298, 363.444 193.944 C 364.949 190.591, 366.012 187.678, 365.805 187.472 C 365.599 187.265, 364.211 189.853, 362.722 193.222 M 20.100 196 C 21.397 198.845, 26.963 205, 28.238 205 C 28.704 205, 27.378 203.313, 25.292 201.250 C 23.206 199.188, 20.928 196.600, 20.230 195.500 C 19.132 193.772, 19.114 193.840, 20.100 196 M 149.250 196.728 C 151.313 196.944, 154.688 196.944, 156.750 196.728 C 158.813 196.513, 157.125 196.336, 153 196.336 C 148.875 196.336, 147.188 196.513, 149.250 196.728 M 167.250 197.689 C 168.213 197.941, 169.787 197.941, 170.750 197.689 C 171.713 197.438, 170.925 197.232, 169 197.232 C 167.075 197.232, 166.287 197.438, 167.250 197.689 M 325.097 200.560 C 323.942 202.518, 323.451 203.840, 324.005 203.497 C 325.089 202.827, 328.335 197, 327.624 197 C 327.390 197, 326.252 198.602, 325.097 200.560 M 177.269 198.693 C 178.242 198.947, 179.592 198.930, 180.269 198.656 C 180.946 198.382, 180.150 198.175, 178.500 198.195 C 176.850 198.215, 176.296 198.439, 177.269 198.693 M 351.263 206.263 C 350.095 210.229, 349.306 213.639, 349.509 213.842 C 349.712 214.045, 350.857 210.990, 352.053 207.053 C 353.249 203.115, 354.038 199.705, 353.807 199.473 C 353.576 199.242, 352.431 202.298, 351.263 206.263 M 293.500 201 C 293.160 201.550, 293.332 202, 293.882 202 C 294.432 202, 295.160 201.550, 295.500 201 C 295.840 200.450, 295.668 200, 295.118 200 C 294.568 200, 293.840 200.450, 293.500 201 M 356.500 206 C 355.106 208.750, 354.191 211, 354.466 211 C 354.741 211, 356.106 208.750, 357.500 206 C 358.894 203.250, 359.809 201, 359.534 201 C 359.259 201, 357.894 203.250, 356.500 206 M 126.655 205.829 C 125.745 206.835, 125.007 208.297, 125.015 209.079 C 125.023 209.860, 125.597 209.375, 126.290 208 C 127.445 205.708, 128.256 205.453, 136.025 204.936 L 144.500 204.373 136.405 204.186 C 129.680 204.032, 128.030 204.310, 126.655 205.829 M 42.750 209.662 C 43.438 209.940, 44.563 209.940, 45.250 209.662 C 45.938 209.385, 45.375 209.158, 44 209.158 C 42.625 209.158, 42.063 209.385, 42.750 209.662 M 318.500 210 C 318.160 210.550, 318.332 211, 318.882 211 C 319.432 211, 320.160 210.550, 320.500 210 C 320.840 209.450, 320.668 209, 320.118 209 C 319.568 209, 318.840 209.450, 318.500 210 M 74.250 212.689 C 75.213 212.941, 76.787 212.941, 77.750 212.689 C 78.713 212.438, 77.925 212.232, 76 212.232 C 74.075 212.232, 73.287 212.438, 74.250 212.689 M 351.535 214.587 C 350.603 216.009, 350.012 217.346, 350.223 217.556 C 350.433 217.766, 351.394 216.602, 352.359 214.969 C 354.514 211.321, 353.871 211.022, 351.535 214.587 M 85.960 216.471 C 87.802 217.830, 90.815 221.059, 92.655 223.647 C 94.495 226.235, 96 227.978, 96 227.520 C 96 225.114, 85.835 214.092, 83.556 214.027 C 83.036 214.012, 84.118 215.112, 85.960 216.471 M 125.086 219 C 125.055 219.825, 125.467 221.175, 126 222 C 127.181 223.828, 127.181 222.249, 126 219.500 C 125.433 218.181, 125.122 218.011, 125.086 219 M 344.606 223.584 C 344.233 224.557, 344.456 225.015, 345.187 224.771 C 346.682 224.273, 347.505 222, 346.190 222 C 345.653 222, 344.941 222.713, 344.606 223.584 M 270.100 226.295 C 268.835 228.402, 268.857 228.423, 270.579 226.774 C 271.570 225.824, 272.166 224.832, 271.903 224.569 C 271.640 224.306, 270.829 225.083, 270.100 226.295 M 130.040 237.300 C 129.965 238.800, 132.864 243.643, 134.684 245.056 C 136.399 246.387, 136.410 246.355, 134.875 244.483 C 133.981 243.392, 132.537 241.150, 131.665 239.500 C 130.793 237.850, 130.062 236.860, 130.040 237.300 M 139.063 258.139 C 139.029 259.041, 139.787 260.637, 140.750 261.686 C 141.713 262.736, 142.181 263.099, 141.790 262.493 C 141.400 261.888, 140.641 260.292, 140.104 258.946 C 139.486 257.400, 139.103 257.103, 139.063 258.139 M 145.954 277.086 C 145.340 278.233, 145.026 279.360, 145.257 279.590 C 145.487 279.820, 146.189 278.882, 146.816 277.504 C 148.194 274.480, 147.523 274.154, 145.954 277.086 M 145.031 282.500 C 145.031 283.050, 145.467 284.175, 146 285 C 146.533 285.825, 146.969 286.050, 146.969 285.500 C 146.969 284.950, 146.533 283.825, 146 283 C 145.467 282.175, 145.031 281.950, 145.031 282.500" stroke="none" fill="#58ab59" fill-rule="evenodd"/><path d="M 85 34.433 C 32.767 61.442, 18.433 69.260, 18.185 70.872 C 17.884 72.839, 22.575 82.140, 24.219 82.835 C 24.655 83.020, 24.758 83.582, 24.447 84.085 C 24.136 84.588, 24.385 85, 25 85 C 25.615 85, 25.840 85.450, 25.500 86 C 25.160 86.550, 25.385 87, 26 87 C 26.615 87, 26.840 87.450, 26.500 88 C 26.160 88.550, 26.385 89, 27 89 C 27.615 89, 27.840 89.450, 27.500 90 C 27.160 90.550, 27.385 91, 28 91 C 28.615 91, 28.840 91.450, 28.500 92 C 28.160 92.550, 28.385 93, 29 93 C 29.615 93, 29.840 93.450, 29.500 94 C 29.160 94.550, 29.385 95, 30 95 C 30.615 95, 30.840 95.450, 30.500 96 C 30.160 96.550, 30.385 97, 31 97 C 31.615 97, 31.840 97.450, 31.500 98 C 31.160 98.550, 31.434 99, 32.108 99 C 32.782 99, 33.040 99.293, 32.682 99.651 C 31.929 100.405, 38.078 112, 39.231 112 C 39.654 112, 40 112.710, 40 113.577 C 40 114.745, 43.541 113.316, 53.629 108.077 C 61.126 104.185, 67.538 101.001, 67.879 101.002 C 68.221 101.003, 71.184 106.403, 74.464 113.002 C 77.745 119.601, 80.999 125, 81.695 125 C 82.392 125, 83.206 123.763, 83.504 122.250 C 83.803 120.737, 85.375 115.225, 86.999 110 C 88.622 104.775, 90.100 99.499, 90.283 98.276 C 90.466 97.052, 90.896 95.771, 91.239 95.428 C 91.582 95.085, 91.620 94.173, 91.324 93.402 C 91.028 92.631, 91.242 92, 91.799 92 C 92.357 92, 92.591 91.151, 92.319 90.113 C 92.048 89.075, 92.384 87.880, 93.067 87.458 C 93.919 86.932, 94.080 87.132, 93.580 88.095 C 93.180 88.868, 93.492 88.719, 94.275 87.766 C 95.057 86.812, 95.991 86.324, 96.349 86.682 C 96.707 87.040, 97 86.782, 97 86.108 C 97 85.434, 97.450 85.160, 98 85.500 C 98.550 85.840, 99 85.615, 99 85 C 99 84.385, 99.450 84.160, 100 84.500 C 100.550 84.840, 101 84.615, 101 84 C 101 83.385, 101.450 83.160, 102 83.500 C 102.550 83.840, 103 83.615, 103 83 C 103 82.385, 103.450 82.160, 104 82.500 C 104.550 82.840, 105 82.615, 105 82 C 105 81.385, 105.338 81.091, 105.752 81.346 C 106.995 82.115, 175.476 46.313, 175.798 44.726 C 175.963 43.919, 171.846 34.988, 166.650 24.879 C 154.965 2.144, 153.749 0.008, 152.500 0.030 C 151.950 0.039, 121.575 15.520, 85 34.433 M 138.500 18.667 C 133.550 21.178, 129.314 23.403, 129.088 23.612 C 128.861 23.821, 129.211 25.168, 129.866 26.605 C 131.082 29.274, 131.071 29.273, 137.189 27.334 C 138.508 26.916, 139.906 28.852, 143.553 36.149 C 149.704 48.451, 149.549 48.285, 153.097 46.450 L 155.993 44.952 150.500 34 L 145.007 23.048 148.004 21.498 C 149.652 20.646, 151 19.481, 151 18.909 C 151 17.393, 149.050 13.992, 148.215 14.051 C 147.822 14.078, 143.450 16.156, 138.500 18.667 M 303 19.918 C 303 21.152, 309.323 25, 311.350 25 C 313.618 25, 327.806 39.306, 332.673 46.500 C 358.531 84.724, 367.362 146.465, 354.388 198.314 C 351.653 209.246, 349.259 215.836, 347.302 217.821 C 346.586 218.548, 346 219.823, 346 220.655 C 346 222.465, 348.084 221.973, 349.023 219.940 C 349.824 218.208, 351.233 215.581, 355.962 207 C 364.771 191.017, 371.296 172.389, 374.701 153.500 C 376.894 141.331, 376.901 115.552, 374.715 103.484 C 368.554 69.486, 348.857 41.913, 320.435 27.500 C 316.097 25.300, 312.086 22.995, 311.523 22.378 C 310.961 21.761, 308.970 20.748, 307.101 20.128 C 303.001 18.767, 303 18.767, 303 19.918 M 123 26.799 L 120.778 28.598 125.446 37.893 C 130.603 48.162, 130.868 50.981, 126.810 52.402 C 123.143 53.686, 121.887 52.454, 116.309 42.106 C 113.758 37.373, 111.578 33.371, 111.465 33.213 C 111.039 32.620, 106 35.357, 106 36.180 C 106 38.665, 115.320 55.091, 118.017 57.361 C 125.382 63.558, 137 58.146, 137 48.517 C 137 44.843, 127.804 25, 126.102 25 C 125.618 25, 124.222 25.810, 123 26.799 M 216.062 30.792 C 211.400 34.664, 207.867 40.982, 206.052 48.690 C 204.969 53.288, 203.841 54.826, 196.151 62.190 C 177.012 80.517, 148.323 101.023, 123.500 114.118 C 113.613 119.334, 74.890 135, 71.885 135 C 70.848 135, 70 135.348, 70 135.773 C 70 136.198, 68.375 137.420, 66.390 138.490 C 63.195 140.210, 51.256 151, 52.547 151 C 52.824 151, 52.264 152.463, 51.301 154.250 C 50.339 156.037, 49.493 158.201, 49.421 159.058 C 49.350 159.915, 48.761 162.840, 48.112 165.558 C 46.975 170.324, 47.290 174.325, 50.492 195.798 C 50.680 197.062, 51.318 198.678, 51.909 199.390 C 52.499 200.102, 52.687 200.980, 52.325 201.342 C 51.963 201.704, 52.192 202, 52.833 202 C 53.475 202, 54 202.442, 54 202.982 C 54 204.694, 60.373 210.537, 63.739 211.911 C 65.938 212.809, 68.763 213.010, 72.542 212.538 C 76.559 212.036, 78.551 212.212, 79.707 213.171 C 80.587 213.902, 81.463 214.387, 81.654 214.250 C 84.068 212.507, 92.600 220.503, 95.996 227.691 C 99.398 234.892, 102.965 245.806, 103.941 252 C 104.418 255.025, 105.039 258.400, 105.321 259.500 C 105.603 260.600, 106.299 263.529, 106.867 266.008 C 107.435 268.488, 108.681 272.313, 109.636 274.508 C 110.590 276.704, 111.282 278.857, 111.172 279.293 C 110.892 280.402, 121.049 290, 122.502 290 C 123.157 290, 124.999 290.628, 126.596 291.396 C 130.898 293.464, 140.206 294.291, 144.915 293.023 C 148.151 292.151, 149 291.458, 149 289.684 C 149 288.452, 148.100 286.674, 147 285.732 C 144.573 283.654, 144.430 279.774, 146.640 276.032 C 148.847 272.296, 147.903 269.171, 143.057 264.178 C 139.236 260.241, 139.107 259.892, 139.680 255.053 C 140.259 250.167, 140.159 249.912, 136.253 246.261 C 131.463 241.782, 129.915 239.039, 130.632 236.297 C 130.928 235.166, 129.749 231.013, 127.960 226.886 C 124.192 218.198, 123.671 209.140, 126.741 205.715 C 128.598 203.643, 127.760 203.648, 159 205.502 C 161.901 205.674, 175.358 207.608, 201.500 211.610 C 203.700 211.946, 207.472 212.862, 209.883 213.644 C 212.294 214.427, 214.503 214.831, 214.791 214.542 C 215.080 214.253, 215.807 214.408, 216.408 214.886 C 217.009 215.364, 220.643 216.532, 224.484 217.483 C 231.942 219.328, 243.761 224.802, 245.930 227.416 C 246.653 228.287, 247.717 229, 248.294 229 C 248.871 229, 250.053 229.616, 250.921 230.370 C 256.130 234.888, 264.543 233.827, 268.796 228.115 C 270.277 226.127, 271.822 224.253, 272.229 223.950 C 273.290 223.163, 276.612 213.189, 277.917 206.875 C 278.528 203.919, 279.293 200.375, 279.617 199 C 280.359 195.852, 281.896 172.965, 281.461 171.550 C 281.283 170.973, 280.871 164.027, 280.545 156.116 C 280.220 148.206, 279.744 141.396, 279.490 140.983 C 279.235 140.571, 278.768 138.493, 278.452 136.367 C 278.136 134.240, 277.229 129.125, 276.435 125 C 275.642 120.875, 274.869 116.600, 274.717 115.500 C 274.566 114.400, 274.177 113.050, 273.852 112.500 C 273.348 111.645, 271.921 105.697, 271.453 102.500 C 271.373 101.950, 271.018 100.825, 270.665 100 C 270.312 99.175, 269.861 97.600, 269.662 96.500 C 269.463 95.400, 269.022 93.825, 268.681 93 C 268.341 92.175, 266.520 87.225, 264.635 82 C 251.568 45.784, 239.036 28.535, 225.153 27.658 C 220.760 27.381, 219.748 27.730, 216.062 30.792 M 90.421 42.896 C 80.088 47.589, 78.118 59.370, 86.138 68.504 C 91.825 74.982, 101.010 75.564, 107.507 69.859 C 115.822 62.559, 113.287 48.222, 102.782 43.137 C 97.422 40.542, 95.680 40.508, 90.421 42.896 M 285 47.773 C 285 48.675, 292.056 52.603, 293.099 52.282 C 294.586 51.824, 307.688 66.819, 311.639 73.501 C 319.287 86.436, 324.762 101.849, 328.134 119.940 C 330.988 135.257, 331.248 164.907, 328.647 178.500 C 326.545 189.486, 322.980 202, 321.952 202 C 320.992 202, 318.811 208.144, 319.519 208.853 C 320.248 209.582, 323.086 206.617, 323.345 204.856 C 323.461 204.065, 324.471 201.861, 325.589 199.959 C 332.794 187.698, 339.678 168.563, 342.122 154 C 343.930 143.226, 343.641 121.249, 341.562 111.500 C 339.263 100.718, 334.254 88.680, 328.494 80.094 C 322.716 71.483, 311.482 60.713, 303.439 56.075 C 300.173 54.191, 295.510 51.379, 293.079 49.825 C 288.840 47.117, 285 46.141, 285 47.773 M 91 51 C 85.474 56.526, 92.587 68.853, 99.953 66.515 C 105.365 64.797, 106.445 56.232, 101.865 51.357 C 99.058 48.368, 93.804 48.196, 91 51 M 71.250 53.220 C 68.498 54.548, 68.479 55.059, 71 60 C 72.100 62.156, 73 64.299, 73 64.761 C 73 65.223, 71.062 66.543, 68.693 67.694 L 64.386 69.787 61.637 64.896 L 58.888 60.006 55.949 61.527 L 53.009 63.047 59.472 75.944 C 63.027 83.038, 66.390 89.123, 66.947 89.467 C 67.759 89.969, 71.243 88.780, 72.817 87.464 C 72.992 87.318, 71.930 84.822, 70.458 81.916 C 67.486 76.053, 67.531 75.939, 74.249 72.399 L 76.997 70.950 79.707 76.475 C 82.597 82.368, 83.375 82.826, 86.625 80.550 C 88.666 79.120, 88.599 78.910, 81.810 65.550 C 78.023 58.098, 74.604 52.030, 74.212 52.068 C 73.821 52.105, 72.487 52.624, 71.250 53.220 M 158.750 58.149 C 153.406 60.964, 151 62.798, 151 64.057 C 151 66.579, 152.562 67.305, 155.087 65.954 C 157.316 64.760, 158.903 65.555, 159.413 68.119 C 160.956 75.886, 162.948 81, 164.430 81 C 165.083 81, 166.360 80.438, 167.267 79.750 C 168.793 78.593, 168.773 77.991, 166.991 71.643 C 165.933 67.872, 164.553 64.166, 163.925 63.409 C 163.019 62.318, 163.419 61.666, 165.848 60.273 C 168.778 58.591, 169.716 55.021, 167.408 54.336 C 166.909 54.187, 163.012 55.903, 158.750 58.149 M 145.704 65.250 C 144.148 66.409, 144.142 66.900, 145.619 72 C 148.296 81.242, 148.436 83.699, 146.349 84.794 C 144.303 85.867, 139.533 84.564, 140.397 83.167 C 140.812 82.495, 137.470 71.400, 136.495 70.213 C 136.365 70.054, 135.075 70.464, 133.629 71.123 C 130.994 72.324, 130.102 75.327, 132.027 76.516 C 132.591 76.865, 132.947 77.679, 132.817 78.325 C 132.687 78.971, 133.080 80.400, 133.692 81.500 C 134.303 82.600, 134.801 83.857, 134.798 84.293 C 134.768 89.087, 141.237 94.244, 144.037 91.660 C 145.004 90.767, 145.121 90.804, 144.542 91.824 C 144.069 92.657, 145.277 92.389, 147.802 91.101 C 150.837 89.553, 152.211 88.012, 153.443 84.777 C 154.990 80.714, 154.968 80.200, 152.995 74.500 C 150.923 68.509, 150.221 66.165, 150.077 64.750 C 149.958 63.590, 147.566 63.863, 145.704 65.250 M 42.209 67.668 C 35.009 71.216, 32.849 78.388, 37.389 83.666 C 39.629 86.270, 40.227 86.431, 46.923 86.229 C 52.630 86.057, 54.189 86.329, 54.671 87.584 C 55.566 89.916, 52.587 92.302, 48.608 92.440 C 44.561 92.580, 44.489 92.634, 43.648 96.144 C 43.112 98.382, 43.403 98.884, 45.546 99.422 C 49.214 100.343, 55.454 98.163, 58.960 94.735 C 63.054 90.732, 63.260 84.532, 59.419 80.924 C 57.189 78.830, 55.874 78.500, 49.758 78.500 C 45.372 78.500, 42.532 78.068, 42.294 77.366 C 41.664 75.502, 44.940 73, 48.012 73 C 51.170 73, 51.424 72.752, 52.381 68.750 C 53.010 66.118, 52.877 66.001, 49.269 66.023 C 47.196 66.035, 44.019 66.776, 42.209 67.668 M 196.989 72.013 C 190.084 80.260, 174.574 91.916, 154.462 103.972 C 120.723 124.196, 116.349 127.718, 111.179 138.825 C 108.925 143.668, 108.556 145.753, 108.658 153.044 C 108.916 171.323, 115.674 186.209, 126.632 192.630 C 130.394 194.835, 132.876 195.352, 143.277 196.099 C 174.240 198.322, 182.915 199.191, 192.312 201.013 C 203.711 203.222, 219.552 207.943, 227.779 211.581 C 230.820 212.926, 233.450 213.884, 233.624 213.710 C 233.798 213.536, 230.663 206.892, 226.657 198.947 C 215.994 177.794, 208.844 154.765, 203.854 125.500 C 202.143 115.466, 201.622 108.279, 201.569 94 C 201.531 83.825, 201.843 73.588, 202.262 71.250 C 202.704 68.781, 202.639 67, 202.105 67 C 201.600 67, 199.297 69.256, 196.989 72.013 M 268 70.876 C 268 72.142, 272.079 75.069, 273.028 74.483 C 274.385 73.644, 285.689 86.574, 289.364 93.167 C 300.365 112.907, 305.757 141.606, 303.087 166.204 C 301.892 177.216, 298.512 192.065, 296.986 193.008 C 295.883 193.691, 293.797 199.130, 294.405 199.739 C 295.499 200.832, 297.171 198.370, 301.398 189.448 C 311.108 168.949, 314.606 153.548, 313.651 135.500 C 312.746 118.397, 308.116 104.952, 298.892 92.637 C 292.193 83.694, 268 66.652, 268 70.876 M 118 77.948 C 112.581 80.828, 109.730 84.754, 109.223 90.033 C 108.433 98.251, 113.577 104.624, 120.271 103.722 C 126.686 102.858, 130.847 99.600, 132.783 93.926 C 135.115 87.092, 132.760 80.478, 126.919 77.458 C 124.371 76.140, 123.584 76.095, 122.236 77.187 C 121.045 78.153, 120.815 78.169, 121.367 77.250 C 122.310 75.681, 122.239 75.695, 118 77.948 M 119 84.024 C 117.625 84.383, 116.612 85.200, 116.750 85.839 C 116.888 86.477, 116.622 87, 116.161 87 C 115.449 87, 115.455 89.455, 116.177 94.614 C 116.466 96.676, 119.415 97.683, 122.653 96.827 C 127.211 95.622, 128.741 90.936, 126.018 86.528 C 123.967 83.211, 123.183 82.931, 119 84.024 M 208 101.468 C 208 109.762, 214.721 149.242, 218.959 165.839 C 221.329 175.122, 227.794 194.114, 229.016 195.383 C 230.135 196.545, 232.600 187.658, 234.091 177.089 C 235.686 165.782, 234.727 146.734, 232.048 136.500 C 228.822 124.175, 222.138 111.356, 215.451 104.668 C 212.333 101.551, 209.382 99, 208.891 99 C 208.401 99, 208 100.111, 208 101.468 M 46.500 148.687 C 30.526 156.731, 24.918 160.464, 22.430 164.709 C 19.438 169.814, 17.076 179.951, 17.702 185 C 17.940 186.925, 18.248 189.400, 18.385 190.500 C 18.738 193.330, 23.237 200.021, 26.898 203.160 C 28.604 204.623, 30 205.625, 30 205.387 C 30 205.149, 31.012 205.615, 32.250 206.424 C 33.487 207.232, 36.955 208.173, 39.955 208.514 C 42.955 208.856, 45.703 209.316, 46.062 209.538 C 47.464 210.405, 58 211.097, 58 210.322 C 58 209.870, 56.495 208.299, 54.656 206.832 C 50.591 203.589, 46.578 195.428, 44.931 187.056 C 42.984 177.158, 44.238 160.345, 47.445 153.338 C 48.866 150.235, 49.910 147.579, 49.764 147.436 C 49.619 147.293, 48.150 147.856, 46.500 148.687 M 34.984 161.029 C 34.387 162.145, 33.632 166.828, 33.307 171.437 C 32.708 179.935, 33.154 182.855, 37.097 196.250 C 38.991 202.683, 39.229 203, 42.149 203 C 44.336 203, 45.063 202.607, 44.687 201.628 C 38.994 186.792, 36.616 167.999, 39.514 160.750 C 40.544 158.175, 36.374 158.432, 34.984 161.029 M 26 164.965 C 23.619 166.794, 23.500 167.377, 23.500 177.193 C 23.500 186.789, 23.724 187.958, 26.745 194.132 C 28.929 198.596, 30.712 200.953, 32.201 201.342 C 33.417 201.660, 34.517 201.817, 34.644 201.689 C 34.771 201.562, 33.512 197.642, 31.846 192.979 C 29.028 185.093, 28.845 183.748, 29.233 173.750 C 29.462 167.838, 29.391 163.010, 29.075 163.022 C 28.759 163.034, 27.375 163.909, 26 164.965" stroke="none" fill="#06a453" fill-rule="evenodd"/></svg>